<?xml version="1.0" encoding="utf-8"?>
<!-- Generator: Adobe Illustrator 19.0.0, SVG Export Plug-In . SVG Version: 6.00 Build 0)  -->
<svg version="1.1" xmlns="http://www.w3.org/2000/svg" xmlns:xlink="http://www.w3.org/1999/xlink" x="0px" y="0px"
	 viewBox="-204 176 698 443" style="enable-background:new -204 176 698 443;" xml:space="preserve">
<style type="text/css">
	.st0{fill:#3F2021;}
	.st1{fill:url(#INNER_1_);}
	.st2{display:none;opacity:0.28;}
	.st3{display:none;}
	.st4{display:inline;}
	.st5{fill:#C1A36F;}
	.st6{fill:#F5E1A4;}
	.st7{fill:#F4B569;}
	.st8{font-family:'Tahoma';}
	.st9{font-size:36px;}
	.st10{font-family:'DancingScriptOT';}
	.st11{font-size:72px;}
</style>
<g id="Camada_3">
	<ellipse id="MAIOR" class="st0" cx="145" cy="397.5" rx="344.5" ry="217"/>
	<linearGradient id="INNER_1_" gradientUnits="userSpaceOnUse" x1="145" y1="603.6575" x2="145" y2="191.3425">
		<stop  offset="0.6" style="stop-color:#F5E1A4"/>
		<stop  offset="0.6" style="stop-color:#3F2021"/>
	</linearGradient>
	<ellipse id="INNER" class="st1" cx="145" cy="397.5" rx="327.3" ry="206.2"/>
</g>
<g id="LOGO">
	<g id="Layer_1_xA0_Image_1_" class="st2">
	</g>
	<g id="Layer_2_xA0_Image_1_" class="st3">
	</g>
	<g id="Layer_3" class="st3">
		<g class="st4">
			<path class="st5" d="M-95.4,663c-3.5,0.4-6.5,0-8.8-1.3c-4.2-2.5-5.1-7.3-5.8-11.2c-0.4-2.2-0.9-4.8-1.8-5.1
				c-2.2-0.7-7.6,5.4-10.9,9c-5.6,6.2-10.8,12.1-16.2,10.1c-3.9-1.4-4.7-5.9-5.5-9.5c-0.3-1.3-0.9-4.7-1.6-4.9
				c-1.5-0.5-6.6,5.6-8.7,8.2c-5,6-9.7,11.6-14.8,10c-4-1.2-4.8-5.8-5.6-9.8c-0.4-2.1-1.1-5.6-2.1-5.9c-1.8-0.6-6.9,4.7-9.6,7.6
				c-5.2,5.5-10.1,10.7-15.2,8.8c-3.5-1.3-4.2-5.1-4.7-8.1c-0.3-1.8-0.8-4.1-1.7-4.5c-2-0.9-7.4,3.7-11,6.7
				c-6,5.1-11.7,9.9-16.8,7.4c-3.3-1.5-3.9-5-4.3-7.5c-0.3-1.6-0.6-3.2-1.3-3.5c-1.9-1-7.5,3.6-11.1,6.5c-5.9,4.9-12.1,9.9-17.4,7.3
				c-3.1-1.5-3.7-4.7-4.1-7c-0.3-1.9-0.6-3.2-1.6-3.8c-2.3-1.6-7.5,1.3-12.5,4.1c-6.9,3.9-14.7,8.2-21.8,5.1
				c-8.4-3.7-9.9-15.6-10.4-19.5c-1.6-12.6,3.1-20.5,7.4-24.9c7.7-8,17.8-8.7,22.9-8.4c0.5-3.8,2.3-10.5,7.6-16.1
				c6-6.2,13.3-7.4,21-8.7c1.2-0.2,2.4-0.4,3.6-0.6c6.2-1.1,40.8-6.5,44.7-19.7c4.7-15.6-45.3-30.1-45.2-30.6c0,0,12.3-1.2,13.7-1.4
				c4.7-0.3,114-7.2,141.6,30.1c6.1,8.3,7.8,18.2,5,29.4c4.7-1.8,11.4-3.2,18.3-0.6c12.4,4.6,17.6,19.4,16.3,31
				c-1.5,13.4-12.1,23.3-21.5,28C-88.8,661.5-92.3,662.6-95.4,663z M-113.1,639.6c1-0.1,2,0,3,0.3c4.1,1.3,4.9,5.7,5.6,9.5
				c0.6,3,1.1,6.2,3.1,7.3c2.2,1.3,7.2,1.1,13.7-2.2c7.7-3.9,17.2-12.4,18.4-23.6c0.9-7.5-1.8-21-12.7-25c-9-3.4-17.8,2.1-19.5,3.2
				c-1,0.7-3.1,1.8-6.5,4c1.8-4.9,1.8-6.2,2.3-7.4c4.8-12.2,3.8-22-2.1-30.6c-23.5-34.4-111.7-32.3-142.5-31.5
				c4.1,0.7,19,5.6,29,12.2c5.2,3.4,12,7.1,13.2,18.4c1.6,16.6-43.6,23.7-49,24.7c-1.2,0.2-2.5,0.4-3.7,0.6
				c-7.4,1.2-13.2,2.2-17.8,7c-6.3,6.5-6.3,15.1-6.3,15.2c0,0.8-0.2,1.7,1.1,5c0,0-3.6-2-4.4-2.2c-1.3-0.2-12.8-2-20.9,6.5
				c-3.4,3.5-7.1,9.9-5.8,20.3c1.1,8.4,3.4,13.4,7.1,15c4.5,2,10.7-1.5,16.7-4.8c6.5-3.6,13.2-7.4,18.4-3.8c3,2,3.5,5.2,4,7.5
				c0.3,1.6,0.5,2.6,1,2.8c2,1,7.6-3.6,11.3-6.6c6.2-5,12-9.8,17.2-7.2c3.3,1.6,3.9,5,4.3,7.6c0.3,1.5,0.6,3.1,1.2,3.4
				c1.9,0.9,7.4-3.8,10.7-6.6c5.8-4.9,11.8-10,17.1-7.6c3.6,1.6,4.3,5.5,4.9,8.6c0.2,1.2,0.7,3.6,1.2,3.8c1.5,0.6,6.6-4.8,9-7.4
				c5.3-5.6,10.3-10.9,15.6-9.1c4.1,1.4,5,6.1,5.8,10.2c0.3,1.4,1,5.2,1.7,5.5c1.5,0.5,6.6-5.6,8.7-8.2c5-6,9.7-11.6,14.8-10
				c3.8,1.2,4.7,5.5,5.4,9.2c0.3,1.7,1,5,1.8,5.3c1.8,0.6,7.4-5.6,10.1-8.6C-122.2,645.3-117.7,640.2-113.1,639.6z"/>
		</g>
	</g>
	<g id="Layer_5">
		<g id="XMLID_17_">
			<path id="XMLID_9_" class="st0" d="M213.1,240.1c-5.6-2.1-11,1.3-12,2c-0.6,0.4-1.9,1.1-4,2.5c1.1-3,1.1-3.8,1.4-4.6
				c3-7.5,2.3-13.6-1.3-18.9c-14.5-21.2-69-20-88-19.5c2.5,0.4,11.7,3.5,17.9,7.5c3.2,2.1,7.4,4.4,8.2,11.4
				c1,10.3-26.9,14.6-30.3,15.3c-0.7,0.1-1.5,0.2-2.3,0.4c-4.6,0.7-8.2,1.4-11,4.3c-3.9,4-3.9,9.3-3.9,9.4c0,0.5-0.1,1.1,0.7,3.1
				c0,0-2.2-1.2-2.7-1.4c-0.8-0.1-7.9-1.2-12.9,4c-2.1,2.2-4.4,6.1-3.6,12.5c0.7,5.2,2.1,8.3,4.4,9.3c2.8,1.2,6.6-0.9,10.3-3
				c4-2.2,8.2-4.6,11.4-2.3c1.9,1.2,2.2,3.2,2.5,4.6c0.2,1,0.3,1.6,0.6,1.7c1.2,0.6,4.7-2.2,7-4.1c3.8-3.1,7.4-6.1,10.6-4.4
				c2,1,2.4,3.1,2.7,4.7c0.2,0.9,0.4,1.9,0.7,2.1c1.2,0.6,4.6-2.3,6.6-4.1c3.6-3,7.3-6.2,10.6-4.7c2.2,1,2.7,3.4,3,5.3
				c0.1,0.7,0.4,2.2,0.7,2.3c0.9,0.4,4.1-3,5.6-4.6c3.3-3.5,6.4-6.7,9.6-5.6c2.5,0.9,3.1,3.8,3.6,6.3c0.2,0.9,0.6,3.2,1.1,3.4
				c0.9,0.3,4.1-3.5,5.4-5.1c3.1-3.7,6-7.2,9.1-6.2c2.3,0.7,2.9,3.4,3.3,5.7c0.2,1.1,0.6,3.1,1.1,3.3c1.1,0.4,4.6-3.5,6.2-5.3
				c2.9-3.3,5.7-6.4,8.6-6.7c0.6-0.1,1.2,0,1.9,0.2c2.5,0.8,3,3.5,3.5,5.9c0.4,1.9,0.7,3.8,1.9,4.5c1.4,0.8,4.4,0.7,8.5-1.4
				c4.8-2.4,10.6-7.7,11.4-14.6C221.4,251,219.8,242.6,213.1,240.1z"/>
			<path id="XMLID_18_" class="st6" d="M214.3,236.9c-4.3-1.6-8.4-0.7-11.3,0.4c1.7-6.9,0.7-13-3.1-18.2
				c-17-23.1-84.6-18.8-87.5-18.6c-0.9,0.1-8.5,0.8-8.5,0.9c-0.1,0.3,30.8,9.3,27.9,18.9c-2.5,8.2-23.8,11.5-27.6,12.2
				c-0.7,0.1-1.5,0.2-2.2,0.4c-4.8,0.8-9.3,1.5-13,5.4c-3.3,3.5-4.4,7.5-4.7,9.9c-3.2-0.2-9.4,0.2-14.1,5.2
				c-2.6,2.7-5.6,7.6-4.6,15.4c0.3,2.4,1.2,9.8,6.4,12c4.4,2,9.2-0.7,13.5-3.2c3.1-1.7,6.2-3.5,7.7-2.5c0.6,0.4,0.7,1.2,1,2.3
				c0.2,1.4,0.6,3.3,2.5,4.3c3.3,1.6,7-1.5,10.7-4.5c2.3-1.9,5.7-4.6,6.9-4c0.4,0.2,0.6,1.2,0.8,2.2c0.3,1.5,0.7,3.7,2.7,4.6
				c3.2,1.5,6.7-1.4,10.4-4.6c2.2-1.9,5.6-4.8,6.8-4.1c0.6,0.2,0.8,1.7,1.1,2.8c0.4,1.9,0.8,4.2,2.9,5c3.1,1.2,6.2-2,9.4-5.4
				c1.7-1.8,4.8-5.1,5.9-4.7c0.6,0.2,1.1,2.4,1.3,3.6c0.5,2.5,1,5.3,3.5,6.1c3.2,1,6.1-2.5,9.1-6.2c1.4-1.6,4.4-5.4,5.4-5.1
				c0.4,0.1,0.8,2.2,1,3c0.4,2.2,1,5,3.4,5.9c3.3,1.2,6.5-2.4,10-6.2c2-2.2,5.4-6,6.7-5.6c0.6,0.2,0.9,1.9,1.1,3.2
				c0.4,2.4,1,5.4,3.6,6.9c1.4,0.8,3.3,1.1,5.4,0.8c2-0.2,4.1-0.9,6.4-2c5.8-2.9,12.4-9,13.3-17.3
				C225.2,248.9,221.9,239.7,214.3,236.9z M220.9,255.6c-0.8,6.9-6.6,12.2-11.4,14.6c-4,2-7.1,2.1-8.5,1.4c-1.2-0.7-1.6-2.7-1.9-4.5
				c-0.4-2.3-0.9-5.1-3.5-5.9c-0.6-0.2-1.2-0.2-1.9-0.2c-2.8,0.4-5.7,3.5-8.6,6.7c-1.7,1.9-5.1,5.7-6.2,5.3
				c-0.5-0.2-0.9-2.2-1.1-3.3c-0.4-2.3-1-4.9-3.3-5.7c-3.2-1-6.1,2.5-9.1,6.2c-1.4,1.6-4.5,5.4-5.4,5.1c-0.4-0.1-0.9-2.5-1.1-3.4
				c-0.5-2.5-1.1-5.4-3.6-6.3c-3.2-1.1-6.4,2.2-9.6,5.6c-1.5,1.6-4.6,4.9-5.6,4.6c-0.3-0.1-0.6-1.7-0.7-2.3c-0.4-1.9-0.8-4.3-3-5.3
				c-3.3-1.5-7,1.7-10.6,4.7c-2,1.7-5.5,4.6-6.6,4.1c-0.4-0.2-0.6-1.2-0.7-2.1c-0.3-1.5-0.7-3.7-2.7-4.7c-3.2-1.6-6.8,1.4-10.6,4.4
				c-2.3,1.9-5.7,4.7-7,4.1c-0.3-0.1-0.4-0.7-0.6-1.7c-0.2-1.4-0.6-3.4-2.5-4.6c-3.2-2.2-7.4,0.1-11.4,2.3c-3.7,2.1-7.5,4.2-10.3,3
				c-2.2-1-3.7-4.1-4.4-9.3c-0.8-6.4,1.5-10.4,3.6-12.5c5-5.2,12.1-4.1,12.9-4c0.5,0.1,2.7,1.4,2.7,1.4c-0.8-2-0.7-2.5-0.7-3.1
				c0-0.1,0-5.4,3.9-9.4c2.9-3,6.5-3.6,11-4.3c0.7-0.1,1.5-0.2,2.3-0.4c3.4-0.6,31.3-5,30.3-15.3c-0.7-7-5-9.3-8.2-11.4
				c-6.2-4.1-15.4-7.1-17.9-7.5c19-0.4,73.5-1.8,88,19.5c3.6,5.3,4.3,11.4,1.3,18.9c-0.2,0.7-0.3,1.5-1.4,4.6c2.1-1.4,3.4-2,4-2.5
				c1.1-0.7,6.5-4.1,12-2C219.8,242.6,221.4,251,220.9,255.6z"/>
		</g>
	</g>
	<g id="Layer_4">
		<path id="XMLID_6_" class="st6" d="M83.2,294.7c1.8,1.9,3.6,3.9,5.4,5.8c1.8,2,3.5,3.9,5.3,5.9c1.7,2,3.5,4,5.3,5.9
			c0.9,1,1.7,2,2.6,3c0.9,1,1.7,2,2.6,3l2.5,3c0.9,1,1.7,2,2.5,3.1s1.7,2,2.5,3.1c0.8,1.1,1.7,2.1,2.5,3.2l2.4,3.2l2.3,3.3
			c0.7,1.1,1.5,2.2,2.2,3.4c0.4,0.6,0.7,1.2,1.1,1.8l1.1,1.8l-1.2-0.6c1.5-0.4,3.2-0.7,4.7-1c1.5-0.3,3.2-0.6,4.7-0.9
			c1.5-0.2,3.2-0.5,4.7-0.7c1.5-0.2,3.2-0.4,4.8-0.7c1.6-0.2,3.2-0.4,4.8-0.6c1.6-0.2,3.2-0.3,4.8-0.4s3.2-0.2,4.8-0.3
			c1.6-0.1,3.2-0.1,4.8-0.1c1.6,0,3.2,0,4.8,0.1c1.6,0.1,3.2,0.1,4.8,0.3c1.6,0.1,3.2,0.3,4.8,0.5c1.6,0.2,3.2,0.5,4.8,0.8l1.2,0.2
			l1.2,0.3c0.8,0.2,1.6,0.4,2.4,0.6s1.6,0.5,2.3,0.7l2.3,0.9l2.3,1.1c0.7,0.4,1.5,0.8,2.2,1.2s1.4,1,2.1,1.4c0.7,0.6,1.3,1.1,2,1.7
			l-0.2,0.2c-0.7-0.4-1.4-0.9-2.1-1.4c-0.7-0.4-1.4-0.8-2.2-1.1c-0.7-0.3-1.5-0.6-2.2-0.9l-2.3-0.8l-2.3-0.6
			c-0.7-0.2-1.5-0.3-2.3-0.5c-0.7-0.2-1.5-0.3-2.3-0.4l-1.2-0.2l-1-0.1c-1.5-0.2-3.2-0.4-4.7-0.5c-1.6-0.1-3.2-0.2-4.8-0.2
			c-1.6-0.1-3.2-0.1-4.8-0.1c-1.6,0-3.2,0-4.8,0.1c-1.6,0-3.2,0.1-4.8,0.1s-3.2,0.1-4.8,0.2c-1.6,0.1-3.2,0.2-4.8,0.3
			c-1.6,0.1-3.2,0.2-4.7,0.4c-3.2,0.3-6.3,0.7-9.4,1.1c-1.5,0.2-3.2,0.4-4.7,0.7c-1.5,0.2-3.1,0.5-4.6,0.8L122,346l-0.4-0.7
			l-0.9-1.7c-0.3-0.6-0.6-1.2-1-1.7c-0.7-1.1-1.4-2.2-2.1-3.3l-2.2-3.3L113,332c-0.7-1.1-1.6-2.1-2.3-3.2c-0.8-1.1-1.6-2.1-2.4-3.2
			c-1.6-2.1-3.3-4.2-4.9-6.2c-0.8-1.1-1.7-2-2.5-3.1c-0.8-1.1-1.7-2-2.5-3.1c-1.7-2-3.4-4.1-5.1-6.1l-5.1-6.1c-1.7-2-3.5-4-5.2-6
			L83.2,294.7z"/>
		<path id="XMLID_5_" class="st6" d="M106.5,285.8c0,0,1.5,2.4,3.9,6c0.6,0.9,1.2,1.9,1.9,2.9c0.7,1.1,1.4,2.2,2,3.3
			c1.4,2.3,2.9,4.7,4.4,7.2c0.7,1.2,1.5,2.5,2.2,3.7c0.7,1.2,1.4,2.5,1.9,3.7s1.1,2.5,1.4,3.6c0.4,1.2,0.7,2.3,1.1,3.4
			c0.1,0.5,0.2,1.1,0.4,1.5c0.1,0.5,0.2,0.9,0.3,1.4c0.2,0.9,0.3,1.6,0.4,2.3c0.2,1.2,0.2,2,0.2,2l-0.2,0.1c0,0-0.1-0.2-0.2-0.4
			c-0.2-0.3-0.4-0.7-0.7-1.3c-0.3-0.6-0.6-1.2-1-2c-0.4-0.8-0.8-1.7-1.2-2.7s-0.9-2-1.4-3.1c-0.5-1.1-1.1-2.3-1.5-3.5
			c-0.5-1.2-1.1-2.5-1.6-3.8c-0.6-1.3-1.2-2.5-1.8-3.8c-1.3-2.5-2.6-5.1-3.8-7.5s-2.4-4.6-3.3-6.5c-2-3.8-3.3-6.4-3.3-6.4
			L106.5,285.8z"/>
		<path id="XMLID_4_" class="st6" d="M140,289.1c0,0,0.4,2.2,0.9,5.6c0.2,1.7,0.6,3.6,0.8,5.7c0.3,2.1,0.6,4.3,0.9,6.5
			c0.1,1.1,0.3,2.2,0.5,3.3c0.2,1.1,0.3,2.2,0.4,3.2c0.2,2.1,0.2,4.1,0.1,5.8c-0.1,0.9-0.1,1.6-0.2,2.3c-0.1,0.7-0.1,1.3-0.2,1.8
			c-0.1,1-0.3,1.5-0.3,1.5h-0.3c0,0-0.2-0.6-0.6-1.5c-0.2-0.5-0.3-1.1-0.5-1.7c-0.2-0.7-0.4-1.4-0.6-2.3c-0.4-1.7-0.7-3.6-0.9-5.7
			c-0.1-1.1-0.1-2.2-0.1-3.3c0-1.1,0-2.2-0.1-3.3c-0.1-2.2-0.2-4.5-0.2-6.6c-0.1-2.1-0.1-4.1-0.1-5.8c-0.1-3.4-0.1-5.6-0.1-5.6H140z
			"/>
		<path id="XMLID_3_" class="st6" d="M162.9,286c0,0,0.1,0.6,0.2,1.8c0.1,1.1,0.2,2.7,0.3,4.7c0.1,1.9,0.2,4.2,0.2,6.7
			c0,1.2,0,2.5-0.1,3.8c0,0.6-0.1,1.3-0.1,1.9c-0.1,0.7-0.1,1.3-0.1,2c-0.1,1.3-0.1,2.7-0.2,4c-0.1,1.3-0.2,2.6-0.4,3.8
			c-0.1,0.6-0.2,1.2-0.4,1.8c-0.1,0.6-0.3,1.2-0.4,1.7c-0.3,1.1-0.7,2.2-1.1,3.2c-0.2,0.5-0.4,0.9-0.6,1.4c-0.2,0.4-0.4,0.9-0.6,1.2
			c-0.2,0.4-0.4,0.7-0.6,1.1c-0.2,0.3-0.4,0.6-0.6,0.9c-0.7,1.1-1.1,1.7-1.1,1.7l-0.3-0.1c0,0,0.1-0.7,0.3-1.8
			c0.1-0.6,0.2-1.2,0.4-2s0.3-1.7,0.4-2.7c0.1-0.5,0.1-1,0.2-1.5c0.1-0.5,0.2-1.1,0.2-1.6c0.1-1.1,0.4-2.3,0.6-3.5
			c0.1-0.6,0.2-1.2,0.4-1.9c0.1-0.6,0.2-1.2,0.4-1.9c0.2-1.2,0.5-2.5,0.7-3.8c0.1-0.6,0.2-1.3,0.2-1.9c0.1-0.6,0.1-1.3,0.2-1.9
			c0.2-1.3,0.3-2.5,0.4-3.8s0.2-2.4,0.3-3.5c0.1-1.1,0.2-2.2,0.2-3.2c0.1-2,0.2-3.6,0.3-4.7c0.1-1.1,0.1-1.8,0.1-1.8L162.9,286z"/>
		<path id="XMLID_2_" class="st6" d="M182.3,286c0,0-0.2,2.7-0.6,6.7c-0.2,2-0.4,4.3-0.7,6.9c-0.3,2.5-0.7,5.2-1.1,7.8
			s-0.7,5.3-1.1,7.8c-0.2,1.2-0.5,2.4-0.8,3.6c-0.3,1.1-0.6,2.2-0.9,3.2c-0.1,0.5-0.3,0.9-0.5,1.4s-0.3,0.9-0.5,1.2
			c-0.3,0.8-0.6,1.4-0.9,2c-0.1,0.2-0.3,0.5-0.4,0.7c-0.1,0.2-0.2,0.4-0.4,0.5c-0.2,0.2-0.3,0.4-0.3,0.4l-0.2-0.1
			c0,0,0.1-0.2,0.1-0.4c0.1-0.3,0.2-0.7,0.3-1.3c0.1-0.3,0.1-0.6,0.2-0.9c0.1-0.4,0.1-0.7,0.2-1.1c0.1-0.8,0.2-1.7,0.4-2.7
			c0.1-0.5,0.2-1,0.2-1.5c0.1-0.6,0.2-1.1,0.2-1.7c0.2-1.1,0.4-2.3,0.6-3.5c0.2-1.2,0.6-2.5,0.9-3.8c0.3-1.3,0.6-2.6,0.9-3.9
			c1.1-5.3,2.1-10.5,2.9-14.5c0.8-4,1.3-6.6,1.3-6.6H182.3z"/>
		<path id="XMLID_1_" class="st7" d="M191.9,280.5c-0.4-0.1,7.8-0.6,12.5,2.2c6.8,4.1,4.3,10.5,4.1,10.9c-0.1,0.2-0.4,0.7-0.7,1.4
			c-0.2,0.4-0.6,0.9-0.9,1.2l-0.5,0.6l-0.6,0.6c-1.5,1.3-3.3,2.1-5.2,2.6c-1.9,0.4-3.8,0.6-5.6,0.6c-0.9,0-1.9-0.1-2.8-0.2
			c-0.9-0.1-1.9-0.2-2.8-0.4l1.3-1.6l5.9,12.1c1,2,2,4,3,6.1l1.4,3c0.4,1.1,0.9,2,1.4,3.1c0.4,1.1,0.9,2,1.4,3.1l1.3,3.1
			c0.4,1.1,0.9,2,1.3,3.1l1.3,3.1c0.8,2.1,1.7,4.2,2.4,6.3l1.2,3.2c0.4,1.1,0.7,2.1,1.1,3.2l-0.3,0.1c-0.6-1-1.2-1.9-1.7-2.9l-1.7-3
			c-1.1-2-2.2-4-3.2-5.9l-1.5-3c-0.5-1-1.1-2-1.5-3l-1.5-3c-0.5-1-1-2-1.5-3c-0.5-1-0.9-2-1.4-3l-1.4-3.1c-0.9-2-1.8-4.1-2.7-6.2
			l-5.4-12.4l-0.9-2.2l2.2,0.6c0.8,0.2,1.7,0.4,2.5,0.5c0.9,0.1,1.7,0.2,2.6,0.2c1.7,0.1,3.5,0,5.1-0.3c1.7-0.3,3.3-0.9,4.5-2
			l0.4-0.4l0.4-0.5c0.3-0.3,0.6-0.6,0.7-1c0.4-0.7,0.7-1.4,0.8-2.2c0.3-2.2-0.7-5.1-1.7-6C202.8,283.3,199.4,282.1,191.9,280.5z"/>
	</g>
</g>
<g id="TEXTO">
	<text id="XMLID_14_" transform="matrix(1 0 0 1 32.9999 515.9872)" class="st0 st8 st9">/rafasantosdoces</text>
	<text id="XMLID_11_" transform="matrix(1 0 0 1 36.0002 562.9873)" class="st0 st8 st9">(11) 98551-9792</text>
	<text id="XMLID_12_" transform="matrix(1 0 0 1 -101.6323 418.3799)" class="st0 st10 st11">Rafa Santos Doces</text>
	<path id="instagram-1" class="st0" d="M5,510.7c3.7,0,6.7-3,6.7-6.7c0-2-0.9-3.8-2.3-5c-0.5-0.4-1-0.8-1.6-1.1
		c-0.8-0.4-1.8-0.6-2.8-0.6s-1.9,0.2-2.8,0.6c-0.6,0.3-1.2,0.6-1.6,1.1c-1.4,1.2-2.3,3-2.3,5C-1.7,507.7,1.3,510.7,5,510.7z
		 M5,499.1c2.7,0,4.9,2.2,4.9,4.9c0,2.7-2.2,4.9-4.9,4.9s-4.9-2.2-4.9-4.9C0.1,501.3,2.3,499.1,5,499.1z M12.4,499.6H22v14.6
		c0,3.7-3,6.7-6.7,6.7H-5.2c-3.7,0-6.8-3-6.8-6.7v-14.6h9.6c-0.8,1.3-1.2,2.8-1.2,4.4c0,4.8,3.9,8.7,8.7,8.7s8.7-3.9,8.7-8.7
		C13.6,502.4,13.2,500.9,12.4,499.6z M15.3,486.8H-2.1v7.1h-1.4v-7.1h-1.4v7.1h-1.4v-7c-0.5,0.1-1,0.2-1.4,0.4v6.6h-1.4v-5.8
		c-1.7,1.2-2.8,3.2-2.8,5.4v4.6h10.6c1.7-1.8,4-2.8,6.4-2.8c2.4,0,4.7,1,6.4,2.8H22v-4.6C22,489.8,19,486.8,15.3,486.8z M19.2,494.3
		c0,0.6-0.5,1-1.1,1h-3.6c-0.6,0-1.1-0.5-1.1-1v-3.6c0-0.6,0.5-1,1.1-1h3.6c0.6,0,1.1,0.5,1.1,1V494.3z"/>
	<g id="XMLID_25_">
		<path id="WhatsApp" class="st0" d="M22,553.2c0,9.2-7.5,16.6-16.7,16.6c-2.9,0-5.7-0.7-8.1-2.1l-9.2,2.9l3-8.9
			c-1.5-2.5-2.4-5.4-2.4-8.6c0-9.2,7.5-16.6,16.7-16.6C14.5,536.7,22,544.1,22,553.2z M5.3,539.3c-7.7,0-14,6.2-14,13.9
			c0,3,1,5.9,2.7,8.2l-1.8,5.2l5.4-1.7c2.2,1.5,4.9,2.3,7.7,2.3c7.7,0,14-6.2,14-13.9C19.4,545.5,13.1,539.3,5.3,539.3z M13.7,557
			c-0.1-0.2-0.4-0.3-0.8-0.5c-0.4-0.2-2.4-1.2-2.8-1.3c-0.4-0.1-0.6-0.2-0.9,0.2C9,555.9,8.2,556.8,8,557c-0.2,0.3-0.5,0.3-0.9,0.1
			c-0.4-0.2-1.7-0.6-3.3-2c-1.2-1.1-2-2.4-2.3-2.8c-0.2-0.4,0-0.6,0.2-0.8c0.2-0.2,0.4-0.5,0.6-0.7c0.2-0.2,0.3-0.4,0.4-0.7
			c0.1-0.3,0.1-0.5,0-0.7c-0.1-0.2-0.9-2.2-1.3-3c-0.3-0.8-0.7-0.7-0.9-0.7c-0.2,0-0.5,0-0.8,0s-0.7,0.1-1.1,0.5
			c-0.4,0.4-1.4,1.4-1.4,3.4c0,2,1.5,3.9,1.7,4.2c0.2,0.3,2.8,4.5,7,6.1c4.2,1.6,4.2,1.1,4.9,1c0.7-0.1,2.4-1,2.8-1.9
			C13.9,558,13.9,557.2,13.7,557z"/>
	</g>
</g>
</svg>
