<?xml version="1.0" encoding="utf-8"?>
<!-- Generator: Adobe Illustrator 19.0.0, SVG Export Plug-In . SVG Version: 6.00 Build 0)  -->
<svg version="1.1" xmlns="http://www.w3.org/2000/svg" xmlns:xlink="http://www.w3.org/1999/xlink" x="0px" y="0px"
	 viewBox="0 0 500 500" style="enable-background:new 0 0 500 500;" xml:space="preserve">
<style type="text/css">
	.st0{fill:#3F2021;}
	.st1{fill:#F5E1A4;}
	.st2{fill:#F4B569;}
</style>
<g id="Camada_2">
	<rect id="XMLID_10_" class="st0" width="500" height="500"/>
</g>
<g id="Camada_1">
	<g id="XMLID_11_">
		<g id="Layer_5">
			<g id="XMLID_17_">
				<path id="XMLID_9_" class="st0" d="M442.6,152.8c-15.7-5.9-31.1,3.7-34.1,5.6c-1.7,1.2-5.4,3.1-11.4,7c3.1-8.6,3.1-10.8,4-12.9
					c8.4-21.3,6.6-38.4-3.7-53.5c-41.1-60.1-195.1-56.4-249-55c7.2,1.2,33.2,9.8,50.7,21.3c9.1,5.9,21,12.4,23.1,32.1
					c2.8,29-76.2,41.4-85.6,43.2c-2.1,0.3-4.4,0.7-6.5,1c-12.9,2.1-23.1,3.8-31.1,12.2c-11,11.4-11,26.4-11,26.6
					c0,1.4-0.3,3,1.9,8.7c0,0-6.3-3.5-7.7-3.8c-2.3-0.3-22.4-3.5-36.5,11.4c-5.9,6.1-12.4,17.3-10.1,35.5
					c1.9,14.7,5.9,23.4,12.4,26.2c7.9,3.5,18.7-2.6,29.2-8.4c11.4-6.3,23.1-12.9,32.1-6.6c5.2,3.5,6.1,9.1,7,13.1
					c0.5,2.8,0.9,4.5,1.7,4.9c3.5,1.7,13.3-6.3,19.7-11.5c10.8-8.7,21-17.1,30-12.6c5.8,2.8,6.8,8.7,7.5,13.3c0.5,2.6,1,5.4,2.1,5.9
					c3.3,1.6,12.9-6.6,18.7-11.5c10.1-8.6,20.6-17.5,29.9-13.3c6.3,2.8,7.5,9.6,8.6,15c0.3,2.1,1.2,6.3,2.1,6.6
					c2.6,1,11.5-8.4,15.7-12.9c9.3-9.8,18-19,27.3-15.9c7.2,2.4,8.7,10.7,10.1,17.8c0.5,2.4,1.7,9.1,3,9.6
					c2.6,0.9,11.5-9.8,15.2-14.3c8.7-10.5,16.9-20.3,25.9-17.5c6.6,2.1,8.2,9.6,9.4,16.1c0.5,3,1.7,8.7,3.1,9.3
					c3.1,1,12.9-9.8,17.6-15c8.2-9.3,16.2-18,24.3-19c1.7-0.2,3.5,0,5.2,0.5c7.2,2.3,8.6,10,9.8,16.6c1,5.2,1.9,10.8,5.4,12.8
					c3.8,2.3,12.6,1.9,23.9-3.8c13.5-6.8,30-21.7,32.1-41.2C466.2,183.4,461.4,159.8,442.6,152.8z"/>
				<path id="XMLID_18_" class="st1" d="M445.9,143.6c-12.1-4.5-23.8-2.1-32,1c4.9-19.6,2.1-36.9-8.7-51.4
					C357,27.9,166,40,157.8,40.7c-2.4,0.2-23.9,2.3-23.9,2.4c-0.2,0.9,87.2,26.2,79,53.5c-7,23.1-67.3,32.5-78.1,34.4
					c-2.1,0.3-4.2,0.7-6.3,1c-13.5,2.3-26.2,4.4-36.7,15.2c-9.4,9.8-12.4,21.3-13.3,28.1c-8.9-0.5-26.6,0.7-40,14.7
					c-7.3,7.7-15.7,21.5-12.9,43.5c0.9,6.8,3.5,27.6,18.2,34.1c12.4,5.6,26-2.1,38.1-8.9c8.7-4.9,17.6-10,21.8-7.2
					c1.7,1.2,2.1,3.3,2.8,6.6c0.7,4,1.7,9.4,7.2,12.2c9.3,4.5,19.9-4.4,30.4-12.8c6.5-5.2,16.1-13.1,19.4-11.4
					c1.2,0.5,1.7,3.3,2.3,6.1c0.9,4.4,1.9,10.5,7.5,13.1c9.1,4.4,18.9-4,29.3-12.9c6.3-5.2,15.7-13.5,19.2-11.7
					c1.6,0.7,2.3,4.7,3,7.9c1,5.2,2.3,11.9,8.2,14.2c8.7,3.3,17.5-5.8,26.6-15.4c4.7-5.1,13.6-14.3,16.8-13.3
					c1.7,0.7,3,6.8,3.7,10.3c1.4,7,2.8,15,9.8,17.1c8.9,2.8,17.1-7,25.9-17.5c3.8-4.5,12.6-15.2,15.2-14.3c1,0.3,2.3,6.3,2.8,8.6
					c1.2,6.3,2.8,14.2,9.6,16.6c9.4,3.3,18.5-6.8,28.3-17.6c5.8-6.3,15.2-16.9,19-15.7c1.6,0.5,2.4,5.2,3.1,8.9
					c1.2,6.8,2.8,15.2,10.1,19.6c4,2.3,9.3,3.1,15.4,2.3c5.6-0.7,11.7-2.6,18-5.8c16.4-8.2,34.9-25.5,37.6-48.9
					C476.8,177.5,467.5,151.6,445.9,143.6z M464.6,196.5c-2.3,19.6-18.7,34.4-32.1,41.2c-11.2,5.6-20.1,5.9-23.9,3.8
					c-3.5-2.1-4.5-7.5-5.4-12.8c-1.2-6.6-2.6-14.3-9.8-16.6c-1.7-0.5-3.5-0.7-5.2-0.5c-8,1-16.1,9.8-24.3,19
					c-4.7,5.2-14.5,16.1-17.6,15c-1.4-0.5-2.6-6.1-3.1-9.3c-1.2-6.5-2.8-14-9.4-16.1c-8.9-2.8-17.1,7-25.9,17.5
					c-3.8,4.5-12.8,15.2-15.2,14.3c-1.2-0.3-2.4-7-3-9.6c-1.4-7.2-3-15.4-10.1-17.8c-9.1-3.1-18,6.1-27.3,15.9
					c-4.2,4.5-13.1,13.8-15.7,12.9c-0.9-0.3-1.7-4.7-2.1-6.6c-1-5.4-2.3-12.2-8.6-15c-9.3-4.2-19.7,4.7-29.9,13.3
					c-5.8,4.9-15.5,13.1-18.7,11.5c-1-0.5-1.6-3.3-2.1-5.9c-0.9-4.4-1.9-10.5-7.5-13.3c-9.1-4.5-19.2,3.8-30,12.6
					c-6.5,5.2-16.2,13.3-19.7,11.5c-0.9-0.3-1.2-2.1-1.7-4.9c-0.7-4-1.7-9.6-7-13.1c-9.1-6.3-20.8,0.3-32.1,6.6
					c-10.5,5.9-21.3,11.9-29.2,8.4c-6.3-2.8-10.5-11.7-12.4-26.2c-2.3-18.2,4.2-29.3,10.1-35.5c14.2-14.7,34.2-11.7,36.5-11.4
					c1.4,0.2,7.7,3.8,7.7,3.8c-2.3-5.8-1.9-7.2-1.9-8.7c0-0.2,0-15.2,11-26.6c8.2-8.4,18.3-10.1,31.1-12.2c2.1-0.3,4.2-0.7,6.5-1
					c9.6-1.7,88.6-14.2,85.6-43.2c-2.1-19.7-14.2-26.2-23.1-32.1c-17.5-11.5-43.5-20.1-50.7-21.3c53.8-1.2,207.9-5.1,249,55
					c10.3,15,12.1,32.1,3.7,53.5c-0.7,2.1-0.9,4.2-4,12.9c5.9-3.8,9.6-5.8,11.4-7c3-1.9,18.3-11.5,34.1-5.6
					C461.4,159.8,466.2,183.4,464.6,196.5z"/>
			</g>
		</g>
		<g id="Layer_4">
			<path id="XMLID_6_" class="st1" d="M67.6,307.3c5.1,5.4,10.1,11,15.2,16.4c5.1,5.6,10,11,15,16.6c4.9,5.6,10,11.2,14.8,16.8
				c2.4,2.8,4.9,5.6,7.3,8.6c2.4,2.8,4.9,5.6,7.3,8.6l7.2,8.6c2.4,2.8,4.7,5.8,7.2,8.7c2.4,3,4.7,5.8,7,8.7c2.3,3,4.7,5.9,7,8.9
				l6.8,9.1l6.6,9.3c2.1,3.1,4.2,6.3,6.3,9.6c1,1.6,1.9,3.3,3,5.1l3,5.1l-3.3-1.7c4.4-1,8.9-1.9,13.3-2.8c4.4-0.9,8.9-1.6,13.3-2.4
				c4.4-0.7,8.9-1.4,13.3-2.1c4.4-0.7,8.9-1.2,13.5-1.9c4.5-0.5,8.9-1.2,13.5-1.6c4.5-0.5,8.9-0.9,13.5-1.2
				c4.5-0.3,9.1-0.7,13.6-0.9c4.5-0.2,9.1-0.3,13.6-0.3s9.1,0,13.6,0.2s9.1,0.3,13.6,0.9c4.5,0.3,9.1,0.9,13.6,1.4
				c4.5,0.7,9.1,1.4,13.6,2.3l3.3,0.7l3.3,0.9c2.3,0.5,4.5,1,6.8,1.7c2.3,0.7,4.5,1.4,6.6,2.1l6.6,2.4l6.5,3c2.1,1,4.2,2.3,6.3,3.5
				c2.1,1.2,4,2.8,5.9,4c1.9,1.6,3.7,3.1,5.6,4.7l-0.5,0.7c-1.9-1.2-4-2.6-5.9-3.8c-2.1-1-4-2.3-6.1-3.1c-2.1-0.9-4.2-1.7-6.3-2.6
				l-6.5-2.3l-6.5-1.7c-2.1-0.5-4.4-0.9-6.6-1.4c-2.1-0.5-4.4-0.9-6.6-1.2l-3.3-0.5l-2.8-0.2c-4.4-0.7-8.9-1-13.3-1.4
				c-4.5-0.2-8.9-0.5-13.5-0.7c-4.5-0.2-8.9-0.2-13.5-0.2c-4.5,0-8.9,0-13.5,0.2c-4.5,0-8.9,0.2-13.5,0.3c-4.5,0.2-8.9,0.3-13.5,0.7
				c-4.5,0.2-8.9,0.5-13.5,0.9c-4.5,0.3-8.9,0.7-13.3,1c-8.9,0.9-17.8,1.9-26.6,3.1c-4.4,0.7-8.9,1.2-13.3,1.9
				c-4.4,0.7-8.7,1.4-13.1,2.3l-2.1,0.3l-1.2-2.1l-2.6-4.9c-0.9-1.6-1.7-3.3-2.8-4.9c-1.9-3.1-3.8-6.3-5.9-9.4l-6.3-9.3l-6.6-9.1
				c-2.1-3.1-4.5-5.9-6.6-9.1c-2.3-3-4.5-5.9-6.8-8.9c-4.5-5.9-9.3-11.9-13.8-17.6c-2.3-3-4.7-5.8-7-8.7c-2.3-3-4.7-5.8-7.2-8.7
				c-4.7-5.8-9.6-11.5-14.3-17.3l-14.5-17.1c-4.9-5.8-9.8-11.4-14.7-16.9L67.6,307.3z"/>
			<path id="XMLID_5_" class="st1" d="M133.5,281.9c0,0,4.4,6.8,11,16.9c1.6,2.6,3.5,5.2,5.2,8.2c1.9,3,3.8,6.1,5.8,9.3
				c4,6.5,8.2,13.3,12.4,20.3c2.1,3.5,4.2,7,6.1,10.5c2.1,3.5,3.8,7,5.4,10.5s3,7,4,10.3c1.2,3.3,2.1,6.5,3,9.6c0.3,1.4,0.7,3,1,4.4
				c0.3,1.4,0.7,2.6,0.9,3.8c0.5,2.4,0.9,4.5,1,6.5c0.5,3.5,0.7,5.6,0.7,5.6l-0.7,0.2c0,0-0.2-0.5-0.7-1.2c-0.5-0.9-1-2.1-1.9-3.7
				c-0.9-1.6-1.7-3.5-2.8-5.8c-1-2.3-2.3-4.7-3.5-7.5c-1.2-2.8-2.6-5.6-4-8.7c-1.4-3.1-3-6.5-4.4-9.8c-1.4-3.5-3-7-4.5-10.7
				s-3.3-7.2-5.1-10.8c-3.7-7.2-7.3-14.3-10.8-21.1s-6.8-12.9-9.4-18.3c-5.6-10.8-9.3-18-9.3-18L133.5,281.9z"/>
			<path id="XMLID_4_" class="st1" d="M228.2,291.4c0,0,1,6.3,2.4,15.7c0.7,4.7,1.6,10.3,2.3,16.2c0.9,5.9,1.6,12.2,2.4,18.5
				c0.3,3.1,0.9,6.3,1.4,9.4c0.5,3.1,0.9,6.1,1.2,9.1c0.5,5.9,0.5,11.5,0.2,16.4c-0.2,2.4-0.2,4.5-0.5,6.6c-0.2,1.9-0.3,3.7-0.5,5.1
				c-0.3,2.8-0.9,4.4-0.9,4.4h-0.9c0,0-0.7-1.6-1.6-4.2c-0.5-1.4-0.9-3-1.4-4.9c-0.5-1.9-1-4-1.6-6.5c-1-4.7-1.9-10.3-2.4-16.2
				c-0.2-3-0.3-6.1-0.3-9.3s0-6.3-0.2-9.4c-0.2-6.3-0.5-12.8-0.5-18.7c-0.2-5.9-0.2-11.5-0.3-16.4c-0.2-9.6-0.2-15.9-0.2-15.9H228.2
				z"/>
			<path id="XMLID_3_" class="st1" d="M293.2,282.5c0,0,0.2,1.7,0.5,5.1c0.3,3.1,0.5,7.7,0.9,13.3c0.3,5.4,0.5,11.9,0.5,18.9
				c0,3.5,0,7-0.2,10.7c0,1.7-0.2,3.7-0.2,5.4c-0.2,1.9-0.2,3.7-0.3,5.6c-0.2,3.7-0.3,7.5-0.7,11.2c-0.2,3.7-0.7,7.3-1.2,10.8
				c-0.3,1.7-0.7,3.5-1,5.1c-0.3,1.7-0.9,3.3-1.2,4.9c-0.9,3.1-2.1,6.1-3,8.9c-0.5,1.4-1,2.6-1.7,3.8c-0.5,1.2-1,2.4-1.7,3.5
				c-0.5,1-1,2.1-1.6,3c-0.5,0.9-1,1.7-1.6,2.4c-1.9,3-3.1,4.7-3.1,4.7l-0.9-0.2c0,0,0.2-1.9,0.9-5.1c0.3-1.6,0.7-3.5,1-5.8
				c0.3-2.3,0.9-4.7,1.2-7.5c0.2-1.4,0.3-2.8,0.7-4.2c0.2-1.4,0.5-3,0.7-4.5c0.3-3.1,1-6.5,1.6-9.8c0.3-1.7,0.7-3.5,1-5.2
				c0.3-1.7,0.7-3.5,1-5.2c0.7-3.5,1.4-7.2,1.9-10.8c0.2-1.7,0.5-3.7,0.7-5.4c0.2-1.7,0.3-3.7,0.7-5.4c0.5-3.7,0.9-7.2,1.2-10.7
				s0.5-6.8,0.9-10c0.2-3.1,0.5-6.1,0.7-8.9c0.3-5.6,0.7-10.1,0.9-13.3c0.2-3.1,0.2-5.1,0.2-5.1L293.2,282.5z"/>
			<path id="XMLID_2_" class="st1" d="M348,282.5c0,0-0.5,7.5-1.7,18.9c-0.5,5.6-1.2,12.2-2.1,19.4c-0.9,7-1.9,14.7-3,22.2
				c-1,7.5-1.9,15-3.1,22.2c-0.7,3.5-1.4,6.8-2.3,10.1c-0.9,3.1-1.7,6.1-2.6,8.9c-0.3,1.4-0.9,2.6-1.4,3.8s-0.9,2.4-1.4,3.5
				c-0.9,2.3-1.7,4-2.6,5.6c-0.3,0.7-0.9,1.4-1.2,1.9c-0.3,0.5-0.7,1-1,1.4c-0.7,0.7-0.9,1-0.9,1l-0.7-0.3c0,0,0.2-0.5,0.3-1.2
				c0.2-0.9,0.5-2.1,0.9-3.7c0.2-0.9,0.3-1.7,0.5-2.6c0.2-1,0.3-2.1,0.5-3.1c0.3-2.3,0.7-4.9,1.2-7.7c0.2-1.4,0.5-2.8,0.7-4.4
				c0.2-1.6,0.5-3.1,0.7-4.7c0.5-3.1,1-6.6,1.7-10c0.7-3.5,1.6-7,2.4-10.7s1.7-7.3,2.4-11c3-14.8,5.9-29.7,8.2-40.9
				c2.3-11.2,3.7-18.7,3.7-18.7H348z"/>
			<path id="XMLID_1_" class="st2" d="M375.1,266.9c-1.2-0.3,22.2-1.6,35.5,6.3c19.2,11.5,12.1,29.7,11.5,30.7c-0.3,0.7-1,2.1-2.1,4
				c-0.7,1.2-1.6,2.4-2.4,3.3l-1.4,1.6l-1.6,1.6c-4.2,3.7-9.4,5.9-14.7,7.3c-5.2,1.2-10.7,1.7-15.9,1.6c-2.6,0-5.2-0.2-7.9-0.5
				s-5.2-0.7-7.9-1.2l3.7-4.5l16.6,34.2c2.8,5.8,5.6,11.4,8.4,17.1l4,8.6c1.2,3,2.6,5.8,3.8,8.7c1.2,3,2.6,5.8,3.8,8.7l3.7,8.7
				c1.2,3,2.4,5.8,3.7,8.7l3.7,8.7c2.3,5.9,4.7,11.9,6.8,17.8l3.3,8.9c1,3,2.1,5.9,3.1,9.1l-0.9,0.3c-1.6-2.8-3.3-5.4-4.9-8.2
				l-4.7-8.4c-3.1-5.6-6.1-11.2-9.1-16.8l-4.4-8.4c-1.4-2.8-3-5.6-4.4-8.6l-4.2-8.6c-1.4-2.8-2.8-5.8-4.2-8.6
				c-1.4-2.8-2.6-5.8-4-8.6l-3.8-8.7c-2.6-5.8-5.1-11.7-7.5-17.5l-15.2-34.9l-2.6-6.1l6.3,1.6c2.3,0.5,4.7,1,7.2,1.4
				c2.4,0.3,4.9,0.5,7.3,0.7c4.9,0.2,9.8,0,14.5-0.9c4.7-0.9,9.3-2.6,12.8-5.6l1.2-1l1.2-1.4c0.9-0.9,1.6-1.7,2.1-2.8
				c1.2-1.9,2.1-4,2.3-6.1c0.9-6.3-2.1-14.5-4.9-16.9C405.8,274.8,396.4,271.6,375.1,266.9z"/>
		</g>
	</g>
</g>
</svg>
